<?xml version="1.0" encoding="UTF-8" standalone="no"?>
<svg
    viewBox="0 0 1920 1080"
    version="1.1"
    xmlns="http://www.w3.org/2000/svg">
    <filter id="shadow" x="-20%" y="-20%" width="140%" height="160%">
        <feDropShadow dy="5" stdDeviation="15" />
    </filter>
    <filter id="blur">
        <feGaussianBlur stdDeviation="50 50" />
    </filter>
    <filter id="image-rescue">
        <feImage x="2%" y="22%" width="15%" height="20%" href="rescue.jpg" />
        <feComposite operator="in" in2="SourceGraphic" />
        <feDropShadow dy="5" stdDeviation="10" flood-opacity="0.25" />
    </filter>
    <filter id="image-at-home">
        <feImage x="18%" y="22%" width="15%" height="20%" href="at_home.jpg" />
        <feComposite operator="in" in2="SourceGraphic" />
        <feDropShadow dy="5" stdDeviation="10" flood-opacity="0.25" />
    </filter>
    <filter id="image-at-work">
        <feImage x="34%" y="22%" width="15%" height="20%" href="at_work.jpg" />
        <feComposite operator="in" in2="SourceGraphic" />
        <feDropShadow dy="5" stdDeviation="10" flood-opacity="0.25" />
    </filter>
    <filter id="image-logistics">
        <feImage x="50%" y="22%" width="15%" height="20%" href="logistics.jpg" />
        <feComposite operator="in" in2="SourceGraphic" />
        <feDropShadow dy="5" stdDeviation="10" flood-opacity="0.25" />
    </filter>
    <filter id="image-simulation">
        <feImage x="2%" y="65%" width="15%" height="20%" href="simulation.jpg" />
        <feComposite operator="in" in2="SourceGraphic" />
        <feDropShadow dy="5" stdDeviation="10" flood-opacity="0.25" />
    </filter>
    <filter id="image-small-size">
        <feImage x="18%" y="65%" width="15%" height="20%" href="small_size.jpg" />
        <feComposite operator="in" in2="SourceGraphic" />
        <feDropShadow dy="5" stdDeviation="10" flood-opacity="0.25" />
    </filter>
    <filter id="image-mid-size">
        <feImage x="34%" y="65%" width="15%" height="20%" href="mid_size.jpg" />
        <feComposite operator="in" in2="SourceGraphic" />
        <feDropShadow dy="5" stdDeviation="10" flood-opacity="0.25" />
    </filter>
    <filter id="image-humanoid">
        <feImage x="50%" y="65%" width="15%" height="20%" href="humanoid.jpg" />
        <feComposite operator="in" in2="SourceGraphic" />
        <feDropShadow dy="5" stdDeviation="10" flood-opacity="0.25" />
    </filter>
    <filter id="image-spl">
        <feImage x="67%" y="55.1111111%" width="31%" height="41.3333333%" href="spl.jpg" />
        <feComposite operator="in" in2="SourceGraphic" />
        <feDropShadow dy="5" stdDeviation="15" flood-opacity="0.25" />
    </filter>

    <image x="0" y="0" width="1920" height="1080" href="many_robots_on_field.jpg"
        style="filter: url(#blur)" />
    <rect x="0" y="0" width="1920" height="1080" fill="rgba(255, 255, 255, 0.75)" />

    <text x="50%" y="8%" text-anchor="middle"
        style="font-family: SF Pro Display; font-weight: 700; font-size: 65px;" fill="black">RoboCup</text>

    <path d="M960,100 C960,140 182.4,100 182.4,170" fill="none" stroke="black" stroke-width="5"
        stroke-linecap="round" />
    <path d="M960,100 C960,140 489.6,100 489.6,170" fill="none" stroke="black" stroke-width="5"
        stroke-linecap="round" />
    <path d="M960,100 C960,140 796.8,100 796.8,165" fill="none" stroke="black" stroke-width="5"
        stroke-linecap="round" />
    <path d="M960,100 C960,140 1104,100 1104,165" fill="none" stroke="black" stroke-width="5"
        stroke-linecap="round" />
    <path d="M960,100 C960,145 1584,100 1584,170" fill="none" stroke="black" stroke-width="5"
        stroke-linecap="round" />
    <path d="M1584,220 C1584,600 182.4,500 182.4,620" fill="none" stroke="black" stroke-width="5"
        stroke-linecap="round" />
    <path d="M1584,220 C1584,580 489.6,495 489.6,620" fill="none" stroke="black" stroke-width="5"
        stroke-linecap="round" />
    <path d="M1584,220 C1584,560 796.8,470 796.8,620" fill="none" stroke="black" stroke-width="5"
        stroke-linecap="round" />
    <path d="M1584,220 C1584,520 1104,440 1104,620" fill="none" stroke="black" stroke-width="5"
        stroke-linecap="round" />
    <path d="M1584,220 C1584,375 1500,350 1500,510" fill="none" stroke="black" stroke-width="5"
        stroke-linecap="round" />

    <text x="2%" y="19.5%" style="font-family: SF Pro Display; font-size: 50px;" fill="black">Rescue</text>
    <rect x="2%" y="22%" width="15%" height="20%" rx="15" ry="15" style="filter: url(#image-rescue)" />
    <text x="18%" y="19.5%" style="font-family: SF Pro Display; font-size: 50px;" fill="black">At
        Home</text>
    <rect x="18%" y="22%" width="15%" height="20%" rx="15" ry="15"
        style="filter: url(#image-at-home)" />
    <text x="34%" y="19.5%" style="font-family: SF Pro Display; font-size: 50px;" fill="black">At
        Work</text>
    <rect x="34%" y="22%" width="15%" height="20%" rx="15" ry="15"
        style="filter: url(#image-at-work)" />
    <text x="50%" y="19.5%" style="font-family: SF Pro Display; font-size: 50px;" fill="black">
        Logistics</text>
    <rect x="50%" y="22%" width="15%" height="20%" rx="15" ry="15"
        style="filter: url(#image-logistics)" />
    <text x="82.5%" y="19.5%" text-anchor="middle"
        style="font-family: SF Pro Display; font-weight: 700; font-size: 50px;" fill="black">Soccer</text>

    <text x="2%" y="62.5%" style="font-family: SF Pro Display; font-size: 50px;" fill="black">
        Simulation</text>
    <rect x="2%" y="65%" width="15%" height="20%" rx="15" ry="15"
        style="filter: url(#image-simulation)" />
    <text x="18%" y="62.5%" style="font-family: SF Pro Display; font-size: 50px;" fill="black">Small
        Size</text>
    <rect x="18%" y="65%" width="15%" height="20%" rx="15" ry="15"
        style="filter: url(#image-small-size)" />
    <text x="34%" y="62.5%" style="font-family: SF Pro Display; font-size: 50px;" fill="black">Mid
        Size</text>
    <rect x="34%" y="65%" width="15%" height="20%" rx="15" ry="15"
        style="filter: url(#image-mid-size)" />
    <text x="50%" y="62.5%" style="font-family: SF Pro Display; font-size: 50px;" fill="black">
        Humanoid</text>
    <rect x="50%" y="65%" width="15%" height="20%" rx="15" ry="15"
        style="filter: url(#image-humanoid)" />
    <text x="67%" y="52.6111111%"
        style="font-family: SF Pro Display; font-weight: 700; font-size: 50px;" fill="black">Standard
        Platform</text>
    <rect x="67%" y="55.1111111%" width="31%" height="41.3333333%" rx="25" ry="25"
        style="filter: url(#image-spl)" />

    <text x="65%" y="94.25%" text-anchor="end"
        style="font-family: SF Pro Display; font-weight: 700; font-size: 65px;" fill="black">Goal:
        Robots vs. Humans in 2050</text>
</svg>
