<?xml version="1.0" encoding="UTF-8" standalone="no"?>
<svg
    viewBox="0 0 1920 1080"
    version="1.1"
    xmlns="http://www.w3.org/2000/svg">
    <filter id="shadow" x="-20%" y="-20%" width="140%" height="160%">
        <feDropShadow dy="5" stdDeviation="15" />
        <feDropShadow dy="5" stdDeviation="15" flood-opacity="0.5" />
    </filter>
    <filter id="blur">
        <feGaussianBlur stdDeviation="50 50" />
    </filter>
    <filter id="image-profile" x="-20%" y="-20%" width="140%" height="160%">
        <feImage x="3%" y="84%" width="6.75%" height="12%" href="profile.jpg" />
        <feComposite operator="in" in2="SourceGraphic" />
        <feDropShadow dy="5" stdDeviation="15" flood-opacity="0.5" />
    </filter>
    <filter id="image-zuehlke" x="-50%" y="-50%" width="200%" height="200%">
        <feImage x="11.1%" y="90%" width="3.375%" height="6%" href="zuehlke.png" />
        <feComposite operator="in" in2="SourceGraphic" />
        <feDropShadow dy="5" stdDeviation="15" flood-opacity="0.5" />
    </filter>
    <filter id="hulks-shadow" x="-50%" y="-50%" width="200%" height="200%">
        <feDropShadow dy="5" stdDeviation="15" flood-opacity="0.5" />
    </filter>

    <image x="0" y="0" width="1920" height="1080" href="many_robots_on_field.jpg" />

    <text x="3%" y="80%" style="font-family: SF Pro Display; font-weight: 700; font-size: 65px; filter: url(#shadow);" fill="white">Using Rust for Playing Soccer With Robots at RoboCup</text>
    <rect x="3%" y="84%" width="6.75%" height="12%" rx="4.21875%" ry="7.5%" style="filter: url(#image-profile);" />
    <text x="11%" y="88%" style="font-family: SF Pro Display; font-size: 50px; filter: url(#shadow);" fill="white">Hendrik Sieck</text>
    <rect x="11.1%" y="90%" width="3.375%" height="6%" style="filter: url(#image-zuehlke);" />
    <g transform="translate(205 957.5) scale(0.75)" style="filter: url(#hulks-shadow);">
		<path d="M 180.2,91.8 H 167.4 V 64.5 H 142 V 91.8 H 129.2 V 32.3 H 142 v 20.4 h 25.5 V 32.3 h 12.8 v 59.5 z" fill="white" />
		<path d="m 236.3,83.3 c 0,2.3 -0.8,4.3 -2.5,6 -1.7,1.7 -3.7,2.5 -6,2.5 h -34 c -2.3,0 -4.3,-0.8 -6,-2.5 -1.7,-1.7 -2.5,-3.7 -2.5,-6 v -51 h 12.8 V 80 h 25.5 V 32.3 h 12.8 v 51 z" fill="white" />
		<path d="M 288.2,91.8 H 250 c -2.3,0 -4.3,-0.8 -6,-2.5 -1.7,-1.7 -2.5,-3.7 -2.5,-6 v -51 h 12.8 V 80 h 34 v 11.8 z" fill="white" />
		<path d="M 349.4,91.8 H 333.2 L 319.6,73.1 306,91.8 H 293.2 V 32.3 H 306 v 37.3 l 27.2,-37.3 h 16.2 L 327.7,62 Z" fill="white" />
		<path d="m 375.9,88 c 0,1 -0.4,1.9 -1.1,2.7 -0.7,0.7 -1.6,1.1 -2.7,1.1 h -19 v -5.3 h 17.1 v -6.9 h -13.3 c -1,0 -1.9,-0.4 -2.7,-1.1 -0.7,-0.7 -1.1,-1.6 -1.1,-2.7 V 69 c 0,-1 0.4,-1.9 1.1,-2.7 0.7,-0.7 1.6,-1.1 2.7,-1.1 h 19 v 5.3 h -17.1 v 3.8 h 13.3 c 1,0 1.9,0.4 2.7,1.1 0.7,0.7 1.1,1.6 1.1,2.7 z" fill="white" />
	</g>
</svg>
